<?xml version="1.0" encoding="utf-8"?>
<!-- Generator: Adobe Illustrator 26.4.1, SVG Export Plug-In . SVG Version: 6.00 Build 0)  -->
<svg version="1.1" id="Layer_1" xmlns="http://www.w3.org/2000/svg" xmlns:xlink="http://www.w3.org/1999/xlink" x="0px" y="0px"
	 viewBox="0 0 419.6 567.8" style="enable-background:new 0 0 419.6 567.8;" xml:space="preserve">
<style type="text/css">
	.st0{fill:#000101;}
</style>
<g>
	<path class="st0" d="M195.5,127.6c28.9-16.9,67,2.3,85.1,42.9c18.1,40.6,9.4,87.2-19.5,104.1c-28.9,16.9-67-2.3-85.1-42.9
		C157.9,191.1,166.6,144.5,195.5,127.6 M137.4,282.4c-10,3.5-18.9,7.5-26.8,11.8c24.4,23.9,59.6,35.9,95.7,29.2
		c59-10.9,98-67.6,87.1-126.6c-8.2-44.6-42.7-77.8-84.5-86.6c-5.4,1.4-11,2.7-17,3.9l-5.5-2.1c5-0.9,9.8-2,14.5-3.1
		c-11-1.5-22.5-1.2-34,0.9c-59,10.9-98,67.6-87.1,126.6c4,21.6,14.2,40.6,28.3,55.4c8.1-4.1,16.6-7.7,25.6-10.6L137.4,282.4z"/>
	<path class="st0" d="M384.4,486.9c-11.4,3.5,12.4-5.4,19.2-25.6c0.7-2,1.3-4.1,1.7-6.3c-0.1-1.8-0.3-3.5-0.6-5.3
		c-3.7-20.2-23.2-33.6-43.4-29.9c-20.2,3.7-33.6,23.2-29.9,43.4c3.7,20.2,23.2,33.6,43.4,29.9c10.8-2,19.6-8.4,24.9-17
		C395.9,481.2,390.8,484.9,384.4,486.9"/>
	<path class="st0" d="M271.3,44.7l2.3-0.8c0.1,0.6,2.4,13.7-6.3,28.8c6.4-8.1,9.4-18.9,7.4-29.8c-3.7-20.2-23.2-33.6-43.4-29.9
		c-20.2,3.7-33.6,23.2-29.9,43.4c3.7,20.2,23.2,33.6,43.4,29.9c5.2-1,9.9-2.9,14-5.7c1.8-1.9,3.4-3.9,4.8-5.9
		C274.2,59,271.4,44.8,271.3,44.7"/>
	<path class="st0" d="M333.3,346.3c50.8-6.1,82.2,63.5,72,108.7c0.3,7.6-1.7,14.9-5.6,21.1c26.4-34.2,0.1-128.5-53.7-134
		c-49.4-5.1-90.3,36-155.5,87.3c-93.8,73.8-196.9-71-80-135.1c-0.8-0.8-1.7-1.7-2.5-2.5C-18.8,356.8-35.6,566,131,555
		C260.9,546.5,254.8,355.7,333.3,346.3"/>
	<path class="st0" d="M110.6,294.2c7.9-4.3,16.8-8.3,26.8-11.8l-3.7-1.3c-9,2.9-17.5,6.5-25.6,10.6
		C108.9,292.6,109.8,293.4,110.6,294.2"/>
	<path class="st0" d="M405.3,455c-0.5,2.2-1.1,4.3-1.7,6.3c-6.7,20.2-30.5,29-19.2,25.6c6.3-1.9,11.4-5.7,15.4-10.8
		C403.6,469.9,405.6,462.6,405.3,455"/>
	<path class="st0" d="M265.5,75.8c0.7-1,1.3-2.1,1.9-3.1c-2.4,3-5.2,5.7-8.5,7.9c-11.9,12.7-32.8,22.2-58.1,28.4
		c2.7,0.4,5.4,0.8,8.1,1.4C236.1,103,255.1,91.4,265.5,75.8"/>
	<path class="st0" d="M191.9,114.2c6-1.1,11.7-2.4,17-3.9c-2.7-0.6-5.3-1-8.1-1.4c-4.7,1.2-9.5,2.2-14.5,3.1L191.9,114.2z"/>
	<path class="st0" d="M267.4,72.7c8.7-15.1,6.4-28.2,6.3-28.8l-2.3,0.8c0,0.1,2.9,14.3-7.6,30c-1.4,2.1-3,4-4.8,5.9
		C262.2,78.4,265,75.7,267.4,72.7"/>
</g>
<g>
</g>
<g>
</g>
<g>
</g>
<g>
</g>
<g>
</g>
<g>
</g>
<g>
</g>
<g>
</g>
<g>
</g>
<g>
</g>
<g>
</g>
<g>
</g>
<g>
</g>
<g>
</g>
<g>
</g>
</svg>
